<svg id="visual" viewBox="0 0 900 600" width="900" height="600" xmlns="http://www.w3.org/2000/svg" xmlns:xlink="http://www.w3.org/1999/xlink" version="1.1"><path d="M0 140L21.5 137.5C43 135 86 130 128.8 131.5C171.7 133 214.3 141 257.2 145.2C300 149.3 343 149.7 385.8 144.3C428.7 139 471.3 128 514.2 120.2C557 112.3 600 107.7 642.8 108C685.7 108.3 728.3 113.7 771.2 121.3C814 129 857 139 878.5 144L900 149L900 0L878.5 0C857 0 814 0 771.2 0C728.3 0 685.7 0 642.8 0C600 0 557 0 514.2 0C471.3 0 428.7 0 385.8 0C343 0 300 0 257.2 0C214.3 0 171.7 0 128.8 0C86 0 43 0 21.5 0L0 0Z" fill="#dbc8c6"></path><path d="M0 111L21.5 109C43 107 86 103 128.8 104.8C171.7 106.7 214.3 114.3 257.2 112.7C300 111 343 100 385.8 97.7C428.7 95.3 471.3 101.7 514.2 102.8C557 104 600 100 642.8 101.2C685.7 102.3 728.3 108.7 771.2 112.7C814 116.7 857 118.3 878.5 119.2L900 120L900 0L878.5 0C857 0 814 0 771.2 0C728.3 0 685.7 0 642.8 0C600 0 557 0 514.2 0C471.3 0 428.7 0 385.8 0C343 0 300 0 257.2 0C214.3 0 171.7 0 128.8 0C86 0 43 0 21.5 0L0 0Z" fill="#cfbfc1"></path><path d="M0 77L21.5 84C43 91 86 105 128.8 106.7C171.7 108.3 214.3 97.7 257.2 97.3C300 97 343 107 385.8 106.2C428.7 105.3 471.3 93.7 514.2 91.2C557 88.7 600 95.3 642.8 101.3C685.7 107.3 728.3 112.7 771.2 111.8C814 111 857 104 878.5 100.5L900 97L900 0L878.5 0C857 0 814 0 771.2 0C728.3 0 685.7 0 642.8 0C600 0 557 0 514.2 0C471.3 0 428.7 0 385.8 0C343 0 300 0 257.2 0C214.3 0 171.7 0 128.8 0C86 0 43 0 21.5 0L0 0Z" fill="#c3b6ba"></path><path d="M0 79L21.5 83.2C43 87.3 86 95.7 128.8 97.5C171.7 99.3 214.3 94.7 257.2 91.2C300 87.7 343 85.3 385.8 87.8C428.7 90.3 471.3 97.7 514.2 94.7C557 91.7 600 78.3 642.8 77.7C685.7 77 728.3 89 771.2 90.2C814 91.3 857 81.7 878.5 76.8L900 72L900 0L878.5 0C857 0 814 0 771.2 0C728.3 0 685.7 0 642.8 0C600 0 557 0 514.2 0C471.3 0 428.7 0 385.8 0C343 0 300 0 257.2 0C214.3 0 171.7 0 128.8 0C86 0 43 0 21.5 0L0 0Z" fill="#b6adb3"></path><path d="M0 76L21.5 73.3C43 70.7 86 65.3 128.8 63.7C171.7 62 214.3 64 257.2 64C300 64 343 62 385.8 61.5C428.7 61 471.3 62 514.2 61.2C557 60.3 600 57.7 642.8 58.2C685.7 58.7 728.3 62.3 771.2 62.7C814 63 857 60 878.5 58.5L900 57L900 0L878.5 0C857 0 814 0 771.2 0C728.3 0 685.7 0 642.8 0C600 0 557 0 514.2 0C471.3 0 428.7 0 385.8 0C343 0 300 0 257.2 0C214.3 0 171.7 0 128.8 0C86 0 43 0 21.5 0L0 0Z" fill="#aaa5ab"></path><path d="M0 65L21.5 61.5C43 58 86 51 128.8 51.2C171.7 51.3 214.3 58.7 257.2 63.3C300 68 343 70 385.8 66.5C428.7 63 471.3 54 514.2 54.2C557 54.3 600 63.7 642.8 65.5C685.7 67.3 728.3 61.7 771.2 57.3C814 53 857 50 878.5 48.5L900 47L900 0L878.5 0C857 0 814 0 771.2 0C728.3 0 685.7 0 642.8 0C600 0 557 0 514.2 0C471.3 0 428.7 0 385.8 0C343 0 300 0 257.2 0C214.3 0 171.7 0 128.8 0C86 0 43 0 21.5 0L0 0Z" fill="#9e9ca2"></path><path d="M0 40L21.5 41.3C43 42.7 86 45.3 128.8 46.5C171.7 47.7 214.3 47.3 257.2 48.5C300 49.7 343 52.3 385.8 54C428.7 55.7 471.3 56.3 514.2 56.2C557 56 600 55 642.8 54.7C685.7 54.3 728.3 54.7 771.2 51.8C814 49 857 43 878.5 40L900 37L900 0L878.5 0C857 0 814 0 771.2 0C728.3 0 685.7 0 642.8 0C600 0 557 0 514.2 0C471.3 0 428.7 0 385.8 0C343 0 300 0 257.2 0C214.3 0 171.7 0 128.8 0C86 0 43 0 21.5 0L0 0Z" fill="#939498"></path><path d="M0 26L21.5 25.3C43 24.7 86 23.3 128.8 23.2C171.7 23 214.3 24 257.2 24.8C300 25.7 343 26.3 385.8 28.3C428.7 30.3 471.3 33.7 514.2 34.5C557 35.3 600 33.7 642.8 34.2C685.7 34.7 728.3 37.3 771.2 38.2C814 39 857 38 878.5 37.5L900 37L900 0L878.5 0C857 0 814 0 771.2 0C728.3 0 685.7 0 642.8 0C600 0 557 0 514.2 0C471.3 0 428.7 0 385.8 0C343 0 300 0 257.2 0C214.3 0 171.7 0 128.8 0C86 0 43 0 21.5 0L0 0Z" fill="#8a8b8d"></path><path d="M0 22L21.5 21.2C43 20.3 86 18.7 128.8 19C171.7 19.3 214.3 21.7 257.2 22.7C300 23.7 343 23.3 385.8 21.7C428.7 20 471.3 17 514.2 16.7C557 16.3 600 18.7 642.8 17.8C685.7 17 728.3 13 771.2 11.5C814 10 857 11 878.5 11.5L900 12L900 0L878.5 0C857 0 814 0 771.2 0C728.3 0 685.7 0 642.8 0C600 0 557 0 514.2 0C471.3 0 428.7 0 385.8 0C343 0 300 0 257.2 0C214.3 0 171.7 0 128.8 0C86 0 43 0 21.5 0L0 0Z" fill="#818283"></path></svg>